<?xml version="1.0" encoding="utf-8"?>
<!-- Generator: Adobe Illustrator 14.0.0, SVG Export Plug-In . SVG Version: 6.00 Build 43363)  -->
<!DOCTYPE svg PUBLIC "-//W3C//DTD SVG 1.1//EN" "http://www.w3.org/Graphics/SVG/1.1/DTD/svg11.dtd">
<svg version="1.1" id="Layer_1" xmlns="http://www.w3.org/2000/svg" xmlns:xlink="http://www.w3.org/1999/xlink" x="0px" y="0px"
	 width="345.999px" height="346px" viewBox="0.701 -0.3 345.999 346" enable-background="new 0.701 -0.3 345.999 346"
	 xml:space="preserve">
<g id="Layer_1_1_">
	<g id="circle">
		<circle fill="#FFFFFF" stroke="#595959" stroke-width="30" cx="173.701" cy="172.7" r="158"/>
	</g>
</g>
<g id="Layer_3_copy">
	<g>
		<path fill="#17C0E9" d="M224.804,54.006c28.098,11.92,48.729,31.305,62.938,57.117c-13.787,19.882-26.834,40.507-40.988,60.025
			C239.633,131.906,231.989,93.188,224.804,54.006z"/>
		<path fill="#17C0E9" d="M44.728,176.701c0-2.557,0-5.112,0-7.667c0.747-12.211,2.395-23.521,5.553-33.319
			c24.214-4.522,48.095-9.376,72.189-14.015c-22.505,33.817-44.782,67.864-67.429,101.54
			C49.299,210.031,45.657,194.723,44.728,176.701z"/>
		<path fill="#17C0E9" d="M303.606,169.033c0,2.556,0,5.111,0,7.667c-0.746,12.211-2.396,23.521-5.556,33.317
			c-24.543,4.459-48.646,9.354-72.981,14.017c22.746-33.574,45.699-68.36,68.488-101.012
			C299.103,136.164,302.704,151.246,303.606,169.033z"/>
		<path fill="#17C0E9" d="M102.374,172.471c7.506,39.738,14.783,79.705,21.946,119.785c-28.092-12.012-48.929-31.279-63.464-56.854
			C74.403,214.133,88.505,193.418,102.374,172.471z"/>
		<path fill="#17C0E9" d="M293.292,222.182c0.18,0,0.354,0,0.527,0c-12.244,28.83-32.084,50.066-58.438,64.787
			c-18.061-11.791-36.34-24.174-54.207-36.492c-2.438-1.68-4.627-3.295-7.14-5.289C214.034,237.768,253.599,229.91,293.292,222.182z
			"/>
		<path fill="#17C0E9" d="M170.333,43.427c2.556,0,5.109,0,7.667,0c12.619,0.868,24.625,2.349,34.377,6.082
			c4.631,23.397,8.828,47.229,13.481,70.604c-33.021-22.597-66.511-44.725-99.158-67.695
			C139.386,47.563,153.609,44.246,170.333,43.427z"/>
		<path fill="#17C0E9" d="M170.333,302.305c-12.415-0.807-24.075-2.363-33.849-5.813c-4.104-23.932-8.558-47.506-12.958-71.137
			c33.205,22.414,66.76,44.48,99.428,67.434c-13.018,5.143-27.635,8.684-44.953,9.52
			C175.446,302.305,172.889,302.305,170.333,302.305z"/>
		<path fill="#17C0E9" d="M80.509,83.271c1.818-1.796,3.637-3.592,5.454-5.39c9.21-8.052,18.412-14.833,27.603-19.47
			c20.236,14.044,40.476,27.617,60.71,41.496c-39.873,7.762-79.75,15.852-119.621,23.413C60.015,109.95,68.343,96.6,80.509,83.271z"
			/>
	</g>
</g>
</svg>
